# Rhino

mtllib bihlizi.mtl
usemtl diffuse_Black
v -7.2324054582307857 -0.042360837721757041 0
v -7.1962862773026401 3.0277866710963202 0
v -3.1147956691190424 -3.1125083450191342 0
v -3.1147956691190424 3.0277866710963202 0
v -3.0786762935412906 -0.078480221663359176 0
v -3.0678241886959254 -7.1838767843806508 0
v -0.080767524473466343 -4.1599706260731502 0
v -0.080767524473466343 -1.1259422989435692 0
v 0.93057517418759172 7.0370381388252028 0
v 1.0028139253430957 2.9555479199408166 0
v 5.0843041442274819 0.93286249828749956 0
v 5.0843041442274819 7.0731573197533484 0
v 6.0595274794763885 -4.1238510558457921 0
vn 0 0 1
vn 0 0 1
vn 0 0 1
vn 0 0 1
vn 0 0 1
vn 0 0 1
vn 0 0 1
vn 0 0 1
vn 0 0 1
vn 0 0 1
vn 0 0 1
vn 0 0 1
vn 0 0 1
f 8//8 5//5 3//3
f 1//1 3//3 5//5
f 4//4 2//2 5//5
f 4//4 5//5 10//10
f 8//8 7//7 13//13
f 11//11 8//8 13//13
f 6//6 8//8 3//3
f 10//10 9//9 4//4
f 10//10 11//11 12//12
f 11//11 10//10 8//8
f 8//8 10//10 5//5
usemtl diffuse_Black
v -0.08076752679701564 -1.1259423197692773 0
v -0.08076752679701564 -4.1599704694358293 0
v 6.0595275380043416 -4.1238510867017029 0
v 5.0843042041829483 0.93286249607588512 0
v 5.0843042041829483 7.0731575608772426 0
v 1.0028139552267534 2.95554792918692 0
v 0.93057518975850284 7.0370381781431171 0
v -3.1147956764635691 3.027786694655171 0
v -7.1962859254197662 3.027786694655171 0
v -3.0786762937294441 -0.078480220479633461 0
v -7.2324053081538926 -0.042360837745506738 0
v -3.1147956764635691 -3.1125083701461858 0
v -3.067824104302951 -7.1838766990456735 0
cstype bspline
deg 1
curv 0 320.40090751729429 14 15 16 17 18 19 20 21 22 23 24 25 26 14
parm u 0 0 14.865042770667024 44.949578381967328 70.181183836449478 100.26519896756133 128.67066706445604 148.67082076191195 176.57576177666135 196.57278359910629 221.8434554489869 242.19517625881721 267.35966965007401 287.30842721152015 320.40090751729429 320.40090751729429
end
